<svg width="153" height="48" viewBox="0 0 153 48" fill="none" xmlns="http://www.w3.org/2000/svg">
<g clip-path="url(#clip0_127_25)">
<path fill-rule="evenodd" clip-rule="evenodd" d="M82.3979 18.2842C82.0251 18.2734 81.5636 18.2643 81.0171 18.2589L81.0153 18.2571C80.4688 18.2517 79.7938 18.248 78.9903 18.248C78.2538 18.248 77.6276 18.2535 77.1155 18.2643C76.6034 18.2752 76.1582 18.2915 75.7854 18.315C75.4126 18.3385 75.0941 18.3711 74.8317 18.4163C74.5693 18.4616 74.3214 18.5177 74.0861 18.5846C73.4509 18.7747 72.9587 19.0371 72.6131 19.3718C72.2674 19.7066 72.0159 20.1753 71.8603 20.7779C71.806 20.968 71.7625 21.1471 71.7354 21.3136C71.7082 21.4819 71.6847 21.6773 71.6684 21.8999C71.6503 22.1225 71.6395 22.3903 71.634 22.7034C71.6286 23.0165 71.625 23.4074 71.625 23.8761C71.625 24.4895 71.634 25.0089 71.6503 25.4324C71.6666 25.8558 71.6938 26.2232 71.7336 26.529C71.7734 26.8348 71.8259 27.1009 71.8928 27.3234C71.9598 27.5478 72.0485 27.7596 72.1607 27.9604C72.3742 28.373 72.6656 28.6988 73.0401 28.9395C73.4147 29.1783 73.9142 29.3539 74.5385 29.4661C74.8733 29.533 75.4054 29.5819 76.1365 29.609C76.8676 29.6362 77.8973 29.6507 79.2255 29.6507H80.096C80.409 29.6507 80.7113 29.647 81.0008 29.6416C81.2903 29.6362 81.5582 29.6308 81.8043 29.6253C82.0504 29.6199 82.2513 29.6108 82.4069 29.6C83.2231 29.5674 83.88 29.4806 84.383 29.3412C84.8861 29.2019 85.3042 28.9865 85.6389 28.697C85.8724 28.4961 86.0714 28.2735 86.2325 28.0274C86.3954 27.7813 86.5239 27.4827 86.618 27.1316C86.7121 26.7806 86.7808 26.3589 86.8188 25.8685C86.8568 25.3781 86.8767 24.7972 86.8767 24.1276C86.8767 22.7758 86.8424 21.8728 86.7754 21.4149C86.6523 20.5228 86.3719 19.8387 85.9303 19.3646C85.4887 18.8905 84.8391 18.5738 83.9795 18.4182C83.7786 18.3856 83.5597 18.3566 83.319 18.3349C83.0783 18.3114 82.7725 18.2951 82.3979 18.2842ZM76.6812 21.0639C76.949 21.0295 77.2892 21.0078 77.7018 20.9969V20.9933C78.1144 20.9824 78.6338 20.977 79.2581 20.977C80.3059 20.977 81.1148 20.9951 81.6849 21.0277C82.2549 21.0621 82.6729 21.167 82.9408 21.3462C83.2086 21.5253 83.3678 21.8058 83.4185 22.1913C83.4692 22.5767 83.4945 23.1196 83.4945 23.8236C83.4945 24.1909 83.4891 24.5094 83.4782 24.7773C83.4674 25.0451 83.4438 25.2731 83.4113 25.4631C83.3787 25.6531 83.3371 25.8124 83.2864 25.9409C83.2375 26.0694 83.1724 26.1834 83.0946 26.2847C82.9932 26.4186 82.872 26.5272 82.7254 26.6104C82.5788 26.6937 82.3671 26.757 82.0884 26.8023C81.8097 26.8475 81.4387 26.8783 80.9755 26.8946C80.5122 26.9108 79.9114 26.9199 79.1749 26.9199C78.5379 26.9199 78.0131 26.9145 77.6005 26.9036C77.1879 26.8928 76.8531 26.871 76.5961 26.8367C76.3391 26.8023 76.1383 26.7588 75.9935 26.7027C75.8487 26.6466 75.7202 26.5743 75.608 26.4856C75.5085 26.3969 75.4216 26.2883 75.3493 26.1598C75.2769 26.0314 75.219 25.8667 75.1737 25.6658C75.1285 25.4649 75.0977 25.2224 75.0814 24.9383C75.0651 24.6542 75.0561 24.2941 75.0561 23.8924C75.0561 23.4906 75.0651 23.1504 75.0814 22.8717C75.0977 22.5912 75.1285 22.3578 75.1737 22.1678C75.219 21.9777 75.2805 21.8221 75.3583 21.6991C75.4361 21.576 75.5302 21.4692 75.6424 21.3806C75.7546 21.3027 75.8885 21.2394 76.0442 21.1887C76.2016 21.1399 76.4133 21.0964 76.6812 21.0639ZM59.9761 27.0736C59.7752 26.9958 59.6413 26.889 59.5744 26.7551H59.5762C59.5092 26.6212 59.4694 26.3588 59.4586 25.9679H56.127C56.1161 26.0891 56.1107 26.1995 56.1107 26.2936V26.5198C56.1107 27.859 56.4563 28.6968 57.1531 29.037C57.3992 29.1601 57.6525 29.2614 57.9149 29.3392C58.1773 29.4171 58.5157 29.4786 58.9283 29.5238C59.3409 29.5673 59.8585 29.5962 60.4774 29.6071C61.0963 29.6179 61.8907 29.6234 62.8625 29.6234C65.2856 29.6234 66.9252 29.5293 67.7848 29.3392C68.1974 29.2506 68.5466 29.1239 68.8307 28.9628C69.1149 28.8 69.3465 28.5882 69.5256 28.3258C69.7048 28.0634 69.8333 27.7431 69.9111 27.3631C69.9889 26.9831 70.0287 26.5379 70.0287 26.024C70.0287 25.4648 69.9726 24.9852 69.8604 24.5835C69.7482 24.1817 69.5763 23.847 69.3411 23.5791C69.1076 23.3113 68.8036 23.1104 68.429 22.9765C68.0544 22.8426 67.6002 22.763 67.0645 22.7413C66.9179 22.7304 66.7297 22.7214 66.4945 22.7159C66.2592 22.7105 66.0204 22.7014 65.7742 22.6906C65.5281 22.6797 65.3055 22.6707 65.1047 22.6653C64.9038 22.6598 64.7645 22.6562 64.6866 22.6562H61.5234C61.2447 22.6562 61.0257 22.6526 60.8701 22.6472C60.7145 22.6417 60.5914 22.6363 60.5027 22.6309C60.4122 22.6254 60.3435 22.6164 60.2928 22.6055C60.2421 22.5947 60.1951 22.5838 60.1498 22.573C59.6703 22.4626 59.4296 22.1658 59.4296 21.6862C59.4296 21.3623 59.5147 21.1343 59.6884 21.0004C59.8621 20.8665 60.177 20.7814 60.6348 20.7488C60.7687 20.738 60.9515 20.7289 61.1868 20.7235C61.4202 20.7181 61.6808 20.7126 61.9649 20.7072C62.249 20.7018 62.544 20.6964 62.8517 20.6909C63.1575 20.6855 63.4452 20.6819 63.713 20.6819C64.2596 20.6819 64.6993 20.6927 65.0359 20.7144C65.3725 20.7362 65.6277 20.7868 65.8068 20.8647C65.9842 20.9425 66.1018 21.0547 66.1579 21.1994C66.214 21.3442 66.2411 21.5397 66.2411 21.7858H69.5564C69.5564 21.3732 69.5383 21.013 69.5057 20.7054C69.4714 20.3996 69.4153 20.1336 69.3374 19.911C69.2596 19.6866 69.1529 19.4966 69.0189 19.3409C68.885 19.1835 68.724 19.0387 68.534 18.9048C68.3331 18.7709 68.1105 18.6641 67.8644 18.5863C67.6201 18.5085 67.2925 18.447 66.8854 18.4017C66.4782 18.3565 65.9588 18.3257 65.3291 18.3094C64.6975 18.2931 63.8922 18.2841 62.9096 18.2841C62.2961 18.2841 61.7514 18.2895 61.2773 18.3004C60.8031 18.3112 60.3797 18.3293 60.0051 18.3583C59.6305 18.3872 59.3011 18.4198 59.017 18.4596C58.7329 18.4994 58.4777 18.5465 58.2551 18.6026C57.8534 18.7021 57.5132 18.8342 57.2345 18.9953C56.9558 19.1563 56.7314 19.3663 56.5649 19.6232C56.3966 19.8784 56.2736 20.1897 56.1958 20.5516C56.1179 20.9135 56.0781 21.346 56.0781 21.8491C56.0781 22.62 56.1722 23.2317 56.3622 23.6823C56.5523 24.1329 56.8472 24.4659 57.249 24.6776C57.4281 24.7663 57.6199 24.8423 57.8262 24.9038C58.0325 24.9653 58.2787 25.0142 58.5628 25.054C58.8469 25.092 59.1762 25.121 59.5508 25.1372C59.9236 25.1535 60.367 25.1626 60.8809 25.1626H63.9555C64.3899 25.1626 64.7301 25.1662 64.9762 25.1716C65.2223 25.1771 65.4123 25.1861 65.5462 25.197C65.6801 25.2078 65.7815 25.2187 65.8484 25.2295C65.9154 25.2404 65.995 25.2639 66.0837 25.2965C66.4637 25.4195 66.6537 25.7218 66.6537 26.2013C66.6537 26.4348 66.6085 26.6193 66.5198 26.7533C66.4311 26.8872 66.2339 26.9903 65.9262 27.0627C65.6204 27.1351 65.1771 27.184 64.5962 27.2057C64.0153 27.2292 63.2353 27.2401 62.2527 27.2401C61.717 27.2401 61.2338 27.2256 60.8049 27.1984C60.3742 27.1713 60.0992 27.1297 59.9761 27.0736ZM114.7 18.3672C115.101 18.3672 115.452 18.3726 115.755 18.3835C116.057 18.3943 116.325 18.416 116.558 18.4504C116.792 18.4848 117.001 18.5264 117.186 18.5753C117.371 18.6242 117.546 18.6893 117.713 18.7671C118.203 18.9897 118.563 19.3643 118.793 19.8891C119.023 20.4139 119.137 21.1106 119.137 21.9811C119.137 23.1646 118.902 24.0061 118.433 24.5091C118.332 24.6087 118.223 24.6955 118.107 24.7679C117.99 24.8403 117.839 24.9073 117.655 24.9688C117.47 25.0303 117.248 25.0864 116.985 25.1371C116.723 25.1878 116.402 25.2402 116.022 25.2963C116.146 25.3072 116.258 25.3162 116.357 25.3217C116.459 25.3271 116.531 25.3307 116.574 25.3307C117.155 25.3633 117.582 25.423 117.856 25.5063C118.129 25.5895 118.35 25.7325 118.516 25.9333C118.684 26.1234 118.804 26.3568 118.876 26.6373C118.949 26.916 118.985 27.296 118.985 27.7756V29.5327H115.536V28.1429C115.536 27.819 115.505 27.5656 115.443 27.3811C115.382 27.1965 115.273 27.0499 115.118 26.9377C114.984 26.849 114.823 26.7893 114.633 26.7622C114.443 26.735 114.119 26.7205 113.661 26.7205H108.455V29.5327H105.072V18.3672H114.698H114.7ZM114.758 23.9427C115.009 23.9102 115.206 23.845 115.351 23.7509C115.496 23.6568 115.594 23.5247 115.644 23.3582C115.695 23.1899 115.72 22.9673 115.72 22.6886C115.72 22.3321 115.7 22.0643 115.662 21.8852C115.623 21.706 115.548 21.5558 115.436 21.4327C115.369 21.3658 115.299 21.3133 115.226 21.2735C115.154 21.2337 115.058 21.2011 114.942 21.174C114.824 21.1468 114.683 21.1287 114.515 21.1233C114.347 21.1179 114.135 21.1142 113.878 21.1142H108.455V23.9934H113.762C114.175 23.9934 114.508 23.9771 114.758 23.9427ZM123.986 18.3672H119.65L126.031 25.6655V29.5327H129.446V25.6655L135.74 18.3672H131.487L127.752 22.9872L123.986 18.3672ZM142.388 18.3672L149.15 26.8545L149.067 18.3672H152.281V29.5327H146.823L140.16 21.1287L140.243 29.5327H136.979V18.3672H142.386H142.388ZM97.6551 29.5327L103.831 18.3672H100L98.5835 21.1124L95.5451 26.8038L91.1422 18.3672H87.3926L93.3518 29.5327H97.6551Z" fill="white"/>
<mask id="mask0_127_25" style="mask-type:luminance" maskUnits="userSpaceOnUse" x="0" y="0" width="51" height="48">
<path d="M50.6864 0H0V48H50.6864V0Z" fill="white"/>
</mask>
<g mask="url(#mask0_127_25)">
<path fill-rule="evenodd" clip-rule="evenodd" d="M0.821514 0.00439312H0L25.3469 48L50.6864 0H49.8685L25.3513 35.2607L0.821514 0.00439312ZM18.9684 21.281L25.3436 30.4641L39.1167 10.6614L21.2374 10.6453L18.0685 6.09326L42.2922 6.10351L46.5367 0H4.15039L15.7944 16.7217H28.0453L24.8977 21.281H18.9684Z" fill="white"/>
</g>
</g>
<defs>
<clipPath id="clip0_127_25">
<rect width="153" height="48" fill="white"/>
</clipPath>
</defs>
</svg>
