<svg width="287" height="40" viewBox="0 0 287 40" fill="none" xmlns="http://www.w3.org/2000/svg">
<g clip-path="url(#clip0_127_32)">
<path d="M43.1847 20.5097C43.1847 14.0129 48.7261 8.6626 55.5414 8.6626C62.3567 8.6626 67.9618 14.0129 67.9618 20.5097C67.9618 27.0702 62.3567 32.4206 55.5414 32.4206C48.7261 32.4206 43.1847 27.1339 43.1847 20.5097ZM49.2357 20.5097C49.2357 24.2677 51.9108 27.0065 55.4777 27.0065C58.9809 27.0065 61.7197 24.204 61.7197 20.5097C61.7197 16.8792 58.9809 14.0766 55.4777 14.0766C52.0382 14.0766 49.2357 16.8792 49.2357 20.5097Z" fill="white"/>
<path d="M78.1529 21.7833V31.847H71.9745V9.04444H78.1529V12.1018C80.4459 9.04444 84.3312 8.59858 85.9236 8.66228V14.7132C84.4586 14.5858 78.1529 14.9043 78.1529 21.7833Z" fill="white"/>
<path d="M106.051 29.618C105.096 30.8919 102.357 32.4206 99.1083 32.4206C91.9108 32.4206 87.6433 27.0703 87.6433 20.5098C87.6433 13.9493 91.8471 8.59894 99.1083 8.59894C102.42 8.59894 104.841 9.93652 106.051 11.4652V0.509766H112.166V31.8473H106.051V29.618ZM100 14.013C96.051 14.013 93.758 16.7518 93.758 20.4461C93.758 24.0766 96.1783 26.8792 100 26.8792C103.885 26.8792 106.242 24.4588 106.242 20.4461C106.306 16.6881 103.885 14.013 100 14.013Z" fill="white"/>
<path d="M120.764 6.6879C118.853 6.6879 117.261 5.22293 117.261 3.3121C117.261 1.46497 118.853 0 120.764 0C122.611 0 124.14 1.46497 124.14 3.3121C124.204 5.15924 122.675 6.6879 120.764 6.6879ZM117.643 9.10828H123.885V31.8471H117.643V9.10828Z" fill="white"/>
<path d="M150.318 18.4078V31.8473H143.949V18.4078C143.949 14.9046 141.975 13.8218 139.554 13.8218C137.834 13.8218 135.096 14.8409 135.223 19.8091V31.8473H129.045V9.04476H135.223V11.083C136.752 9.55432 139.299 8.6626 141.338 8.6626C147.898 8.6626 150.318 12.4843 150.318 18.4078Z" fill="white"/>
<path d="M172.739 29.6177C171.783 30.8916 169.045 32.4203 165.796 32.4203C158.599 32.4203 154.331 27.07 154.331 20.5095C154.331 13.949 158.535 8.59863 165.796 8.59863C169.108 8.59863 171.529 9.93621 172.739 11.4649V9.10819H178.853V31.847H172.739V29.6177ZM166.752 14.0126C162.803 14.0126 160.51 16.7515 160.51 20.4458C160.51 24.0763 162.93 26.8789 166.752 26.8789C170.637 26.8789 172.994 24.4585 172.994 20.4458C172.994 16.6878 170.573 14.0126 166.752 14.0126Z" fill="white"/>
<path d="M184.14 0.509766H190.382V31.8473H184.14V0.509766Z" fill="white"/>
<path d="M194.076 28.8534L197.325 24.5222C199.108 25.7324 201.975 26.9426 204.713 26.9426C206.624 26.9426 207.962 26.0509 207.962 24.9044C207.962 23.3757 204.777 23.1846 203.567 22.9935C200.446 22.484 194.522 21.5286 194.522 15.7961C194.522 9.10819 201.72 8.59863 203.949 8.59863C207.58 8.59863 210.446 9.61774 213.44 11.847L210.191 16.0509C208.471 15.0318 206.242 13.949 203.694 13.949C202.484 13.949 200.701 14.5222 200.701 15.6687C200.701 17.1974 204.013 17.5795 205.032 17.7069C208.917 18.3439 214.076 19.0445 214.076 24.9044C214.076 29.6177 210.701 32.2929 204.713 32.2929C199.873 32.4203 196.561 30.8279 194.076 28.8534Z" fill="white"/>
<path d="M218.153 31.8473V0.509766H224.268V11.4652C225.414 9.93652 227.898 8.59894 231.21 8.59894C238.408 8.59894 242.675 13.9493 242.675 20.5098C242.675 27.0703 238.471 32.4206 231.21 32.4206C227.962 32.4206 225.223 30.9556 224.268 29.618V31.8473H218.153ZM230.318 26.8792C234.14 26.8792 236.561 24.0766 236.561 20.4461C236.561 16.6881 234.268 14.013 230.318 14.013C226.433 14.013 224.076 16.6881 224.076 20.4461C224.076 24.4588 226.433 26.8792 230.318 26.8792ZM245.732 20.5098C245.732 14.013 251.274 8.66263 258.089 8.66263C264.904 8.66263 270.51 14.013 270.51 20.5098C270.51 27.0703 264.904 32.4206 258.089 32.4206C251.274 32.4206 245.732 27.134 245.732 20.5098ZM251.847 20.5098C251.847 24.2677 254.522 27.0066 258.089 27.0066C261.592 27.0066 264.331 24.204 264.331 20.5098C264.331 16.8792 261.592 14.0766 258.089 14.0766C254.586 14.0766 251.847 16.8792 251.847 20.5098ZM282.293 23.7582C282.293 25.0321 282.357 27.134 285.096 27.134C285.796 27.134 286.306 27.0703 286.688 27.0703V32.2932C285.924 32.3569 284.777 32.4843 283.885 32.4843C279.108 32.4843 276.115 31.5926 276.115 26.8155V14.1403H273.312V8.72633H276.115V2.61168H282.229V8.72633H286.815V14.1403H282.229V23.7582H282.293Z" fill="url(#paint0_linear_127_32)"/>
<path d="M29.8726 22.2292C31.6561 45.8598 -1.65605 45.8598 0.0636942 22.2292C0.0636942 21.6559 0.509554 21.2101 1.0828 21.2101H28.8535C29.4268 21.2738 29.8726 21.7196 29.8726 22.2292ZM25.7962 3.56677V15.2865C25.7962 17.07 24.3949 18.4712 22.6115 18.4712H7.32484C5.5414 18.4712 4.14013 17.0063 4.14013 15.2865V3.56677C4.14013 1.78333 5.6051 0.318359 7.38854 0.318359H22.6115C24.3949 0.318359 25.7962 1.78333 25.7962 3.56677ZM13.6943 9.23556C13.6943 7.6432 12.3567 6.36931 10.7643 6.36931C9.17197 6.36931 7.96178 7.6432 7.89809 9.23556C7.89809 10.8279 9.23567 12.1018 10.828 12.1018C12.4204 12.1018 13.6943 10.8279 13.6943 9.23556ZM22.0382 9.23556C22.0382 7.6432 20.7006 6.36931 19.1083 6.36931C17.5159 6.36931 16.3057 7.6432 16.242 9.23556C16.242 10.8279 17.5796 12.1018 19.172 12.1018C20.7006 12.1018 21.9745 10.8279 22.0382 9.23556ZM19.1083 8.34384C18.5987 8.34384 18.2166 8.7897 18.2803 9.23556C18.2803 9.68142 18.6624 10.0636 19.1083 10.0636C19.6178 10.0636 20 9.61772 19.9363 9.17186C19.9363 8.726 19.5541 8.40753 19.1083 8.34384ZM10.828 8.34384C10.3185 8.34384 9.93631 8.7897 10 9.23556C10 9.68142 10.3822 10.0636 10.828 10.0636C11.3376 10.0636 11.7197 9.61772 11.6561 9.17186C11.6561 8.726 11.2739 8.40753 10.828 8.34384Z" fill="white"/>
</g>
<defs>
<linearGradient id="paint0_linear_127_32" x1="228.544" y1="40.2775" x2="275.985" y2="-7.16328" gradientUnits="userSpaceOnUse">
<stop stop-color="#F9B233"/>
<stop offset="1" stop-color="#FFD810"/>
</linearGradient>
<clipPath id="clip0_127_32">
<rect width="286.879" height="40" fill="white"/>
</clipPath>
</defs>
</svg>
